<?xml version="1.0" encoding="UTF-8"?><svg id="Layer_2" xmlns="http://www.w3.org/2000/svg" viewBox="0 0 23.32 23.32"><g id="Layer_1-2"><circle cx="11.66" cy="11.66" r="11.66" style="fill:#fff;"/><path d="M5.72,6.53c0-.45.36-.81.81-.81h3.24c.45,0,.81.36.81.81v3.24c0,.45-.36.81-.81.81h-3.24c-.45,0-.81-.36-.81-.81v-3.24ZM5.72,13.55c0-.45.36-.81.81-.81h3.24c.45,0,.81.36.81.81v3.24c0,.45-.36.81-.81.81h-3.24c-.45,0-.81-.36-.81-.81v-3.24ZM12.74,6.53c0-.45.36-.81.81-.81h3.24c.45,0,.81.36.81.81v3.24c0,.45-.36.81-.81.81h-3.24c-.45,0-.81-.36-.81-.81v-3.24Z" style="fill:none; stroke:#000; stroke-linecap:round; stroke-linejoin:round;"/><path d="M7.88,7.88h.54v.54h-.54v-.54ZM7.88,14.9h.54v.54h-.54v-.54ZM14.9,7.88h.54v.54h-.54v-.54ZM12.74,12.74h.54v.54h-.54v-.54ZM12.74,17.06h.54v.54h-.54v-.54ZM17.06,12.74h.54v.54h-.54v-.54ZM17.06,17.06h.54v.54h-.54v-.54ZM14.9,14.9h.54v.54h-.54v-.54Z" style="fill:none; stroke:#000; stroke-linecap:round; stroke-linejoin:round;"/></g></svg>